<?xml version="1.0" encoding="UTF-8" standalone="no" ?>
<!DOCTYPE svg PUBLIC "-//W3C//DTD SVG 1.1//EN" "http://www.w3.org/Graphics/SVG/1.1/DTD/svg11.dtd">
<svg xmlns="http://www.w3.org/2000/svg" xmlns:xlink="http://www.w3.org/1999/xlink" version="1.1" width="1016" height="203.2" viewBox="0 0 1016 203.2" xml:space="preserve">
<desc>Created with Plasfy Editor</desc>
<defs>
<linearGradient id="SVGID_23" gradientUnits="userSpaceOnUse" gradientTransform="matrix(1 0 0 1 0 0) matrix(1 0 0 1 -508 -101.6)"  x1="0" y1="101.6" x2="508" y2="101.6">
<stop offset="50%" style="stop-color:transparent;"/>
</linearGradient>
</defs>
<rect transform="matrix(1 0 0 1 0 0) translate(508,101.6)" x="-508" y="-101.6" width="1016" height="203.2" fill="url(#SVGID_23)"></rect>
<g transform="matrix(1 0 0 1 623.4997300224 95.8705288085)" style=""  >
		<text xml:space="preserve" font-family="Lato-Bold" font-size="135.46666666666664" font-style="normal" font-weight="normal" style="stroke: none; stroke-width: 1; stroke-dasharray: none; stroke-linecap: butt; stroke-dashoffset: 0; stroke-linejoin: miter; stroke-miterlimit: 4; fill: rgb(0,74,173); fill-rule: nonzero; opacity: 1; white-space: pre;" ><tspan x="-358.14" y="42.5554986667" >SharedStars</tspan></text>
</g>
<g transform="matrix(2.9837789844 0 0 2.6151406577 126.8587300553 99.049735907)"  >
<filter id="SVGID_19" y="-20%" height="140%" x="-20%" width="140%" >
	<feGaussianBlur in="SourceAlpha" stdDeviation="0"></feGaussianBlur>
	<feOffset dx="0" dy="0" result="oBlur" ></feOffset>
	<feFlood flood-color="rgb(22,22,22)" flood-opacity="0.8"/>
	<feComposite in2="oBlur" operator="in" />
	<feMerge>
		<feMergeNode></feMergeNode>
		<feMergeNode in="SourceGraphic"></feMergeNode>
	</feMerge>
</filter>
<g style="filter: url(#SVGID_19);"   >
		<g transform="matrix(0.48046875 0 0 0.48046875 0 1e-10)"  >
<path style="stroke: none; stroke-width: 1; stroke-dasharray: none; stroke-linecap: butt; stroke-dashoffset: 0; stroke-linejoin: miter; stroke-miterlimit: 4; fill: rgb(0,74,173); fill-rule: nonzero; opacity: 1;"  transform=" translate(-256.48, -159.715)" d="M 255.07 190.39 v 39.46 h 2.69 v -39.46 l 24.46 -14.12 l 47.81 27.58 v -3.49 l -46.4 -26.77 v -28.24 l 46.4 -26.47 v -3 l -47.81 27.28 l -24.46 -14.12 V 89.58 h -2.69 v 39.46 l -24.46 14.12 l -47.68 -27.6 v 2.92 l 46.4 26.87 v 28.24 l -46.4 27.01 v 3.42 l 47.68 -27.74 L 255.07 190.39 z M 232.02 145.35 l 24.46 -14.12 l 24.46 14.12 v 28.24 l -24.46 14.12 l -24.46 -14.12 V 145.35 z" stroke-linecap="round" />
</g>
		<g transform="matrix(0.48046875 0 0 0.48046875 24.7945898437 0.1345312501)"  >
<path style="stroke: none; stroke-width: 1; stroke-dasharray: none; stroke-linecap: butt; stroke-dashoffset: 0; stroke-linejoin: miter; stroke-miterlimit: 4; fill: rgb(0,74,173); fill-rule: nonzero; opacity: 1;"  transform=" translate(-308.085, -159.995)" d="M 312.8 155.03 c 2.19 -1.78 3.63 -4.77 3.63 -8.16 c 0 -5.47 -3.74 -9.9 -8.35 -9.9 c -4.61 0 -8.35 4.43 -8.35 9.9 c 0 3.39 1.44 6.38 3.63 8.16 l -15.67 9.05 v 7.16 l 20.39 11.78 l 20.4 -11.78 v -7.16 L 312.8 155.03 z" stroke-linecap="round" />
</g>
		<g transform="matrix(0.48046875 0 0 0.48046875 12.3696679687 21.7724414063)"  >
<path style="stroke: none; stroke-width: 1; stroke-dasharray: none; stroke-linecap: butt; stroke-dashoffset: 0; stroke-linejoin: miter; stroke-miterlimit: 4; fill: rgb(217,217,217); fill-rule: nonzero; opacity: 1;"  transform=" translate(-282.225, -205.03)" d="M 286.94 200.07 c 2.19 -1.78 3.63 -4.77 3.63 -8.16 c 0 -5.47 -3.74 -9.9 -8.35 -9.9 c -4.61 0 -8.35 4.43 -8.35 9.9 c 0 3.39 1.44 6.38 3.63 8.16 l -15.67 9.05 v 7.16 l 20.39 11.77 l 20.4 -11.77 v -7.16 L 286.94 200.07 z" stroke-linecap="round" />
</g>
		<g transform="matrix(0.48046875 0 0 0.48046875 12.3696679687 -21.265546875)"  >
<path style="stroke: none; stroke-width: 1; stroke-dasharray: none; stroke-linecap: butt; stroke-dashoffset: 0; stroke-linejoin: miter; stroke-miterlimit: 4; fill: rgb(217,217,217); fill-rule: nonzero; opacity: 1;"  transform=" translate(-282.225, -115.455)" d="M 286.94 110.49 c 2.19 -1.78 3.63 -4.77 3.63 -8.16 c 0 -5.47 -3.74 -9.9 -8.35 -9.9 c -4.61 0 -8.35 4.43 -8.35 9.9 c 0 3.39 1.44 6.38 3.63 8.16 l -15.67 9.05 v 7.16 l 20.39 11.78 l 20.4 -11.78 v -7.16 L 286.94 110.49 z" stroke-linecap="round" />
</g>
		<g transform="matrix(0.48046875 0 0 0.48046875 -12.4201171875 -21.265546875)"  >
<path style="stroke: none; stroke-width: 1; stroke-dasharray: none; stroke-linecap: butt; stroke-dashoffset: 0; stroke-linejoin: miter; stroke-miterlimit: 4; fill: rgb(0,74,173); fill-rule: nonzero; opacity: 1;"  transform=" translate(-230.63, -115.455)" d="M 235.34 110.49 c 2.19 -1.78 3.63 -4.77 3.63 -8.16 c 0 -5.47 -3.74 -9.9 -8.35 -9.9 c -4.61 0 -8.35 4.43 -8.35 9.9 c 0 3.39 1.44 6.38 3.63 8.16 l -15.67 9.05 v 7.16 l 20.4 11.78 l 20.4 -11.78 v -7.16 L 235.34 110.49 z" stroke-linecap="round" />
</g>
		<g transform="matrix(0.48046875 0 0 0.48046875 -12.4201171875 21.7724414063)"  >
<path style="stroke: none; stroke-width: 1; stroke-dasharray: none; stroke-linecap: butt; stroke-dashoffset: 0; stroke-linejoin: miter; stroke-miterlimit: 4; fill: rgb(0,74,173); fill-rule: nonzero; opacity: 1;"  transform=" translate(-230.63, -205.03)" d="M 235.34 200.07 c 2.19 -1.78 3.63 -4.77 3.63 -8.16 c 0 -5.47 -3.74 -9.9 -8.35 -9.9 c -4.61 0 -8.35 4.43 -8.35 9.9 c 0 3.39 1.44 6.38 3.63 8.16 l -15.67 9.05 v 7.16 l 20.4 11.77 l 20.4 -11.77 v -7.16 L 235.34 200.07 z" stroke-linecap="round" />
</g>
		<g transform="matrix(0.48046875 0 0 0.48046875 -24.7897851563 0.1345312501)"  >
<path style="stroke: none; stroke-width: 1; stroke-dasharray: none; stroke-linecap: butt; stroke-dashoffset: 0; stroke-linejoin: miter; stroke-miterlimit: 4; fill: rgb(217,217,217); fill-rule: nonzero; opacity: 1;"  transform=" translate(-204.885, -159.995)" d="M 209.6 155.03 c 2.19 -1.78 3.63 -4.77 3.63 -8.16 c 0 -5.47 -3.74 -9.9 -8.35 -9.9 c -4.61 0 -8.35 4.43 -8.35 9.9 c 0 3.39 1.44 6.38 3.63 8.16 l -15.67 9.05 v 7.16 l 20.39 11.78 l 20.4 -11.78 v -7.16 L 209.6 155.03 z" stroke-linecap="round" />
</g>
		<g transform="matrix(0.48046875 0 0 0.48046875 -0.0024023437 6.6953320313)"  >
<polygon style="stroke: none; stroke-width: 1; stroke-dasharray: none; stroke-linecap: butt; stroke-dashoffset: 0; stroke-linejoin: miter; stroke-miterlimit: 4; fill: rgb(0,74,173); fill-rule: nonzero; opacity: 1;"  points="7.135,-1.99 0.005,1.99 -7.125,-1.99 -14.255,-5.97 -21.385,-9.95 -21.385,-1.99 0.005,9.95 21.385,-1.99 21.385,-9.95 14.255,-5.97 " />
</g>
		<g transform="matrix(0.48046875 0 0 0.48046875 -0.009609375 0.9537304688)"  >
<path style="stroke: none; stroke-width: 1; stroke-dasharray: none; stroke-linecap: butt; stroke-dashoffset: 0; stroke-linejoin: miter; stroke-miterlimit: 4; fill: rgb(217,217,217); fill-rule: nonzero; opacity: 1;"  transform=" translate(-256.46, -161.7)" d="M 270.73 155.73 l -7.13 3.98 l -7.13 3.98 l -7.13 -3.98 l -7.13 -3.98 l -7.13 -3.98 v 7.96 l 21.38 11.94 l 21.38 -11.94 v -7.96 L 270.73 155.73 z M 273.28 160.33 c -0.84 0.48 -1.53 -0.03 -1.53 -1.13 c 0 -1.1 0.68 -2.38 1.53 -2.85 c 0.84 -0.48 1.53 0.03 1.53 1.13 C 274.81 158.57 274.12 159.85 273.28 160.33 z" stroke-linecap="round" />
</g>
		<g transform="matrix(0.48046875 0 0 0.48046875 -0.0024023437 -5.7391992187)"  >
<polygon style="stroke: none; stroke-width: 1; stroke-dasharray: none; stroke-linecap: butt; stroke-dashoffset: 0; stroke-linejoin: miter; stroke-miterlimit: 4; fill: rgb(0,74,173); fill-rule: nonzero; opacity: 1;"  points="0.005,-11.94 -21.385,0 0.005,11.94 21.385,0 " />
</g>
</g>
</g>
</svg>